<svg width="48" height="48" viewBox="0 0 48 48" fill="none" xmlns="http://www.w3.org/2000/svg">
<path d="M8.31139 5.94623C12.3706 2.45611 17.53 0.26999 22.8791 0.039872C28.911 -0.343658 34.8292 2.07258 39.4954 5.86952C38.9643 6.79 33.2358 13.7702 31.0734 16.4166C32.553 16.4933 33.9946 16.4933 35.4741 16.5317C31.7563 20.6354 23.2205 30.2237 22.4618 30.6455C23.6758 26.8486 25.0794 23.09 26.3313 19.2547C24.9277 19.2547 23.4861 19.2547 22.0824 19.2164C24.3966 14.9208 26.8625 10.6636 29.2525 6.40647C26.2934 6.36811 23.3343 6.40647 20.3753 6.40647C14.4192 15.8029 8.53901 25.2378 2.54501 34.6343C-2.50058 25.2761 0.230866 12.658 8.31139 5.94623Z" fill="#FD5816"/>
<path d="M37.333 42.3432C40.1403 33.1385 42.9097 23.8954 45.717 14.6907C47.2724 17.1069 47.7277 20.0218 47.9553 22.8599C48.2967 28.191 46.6654 33.522 43.6684 37.8559C41.8475 40.4639 39.8747 43.0719 37.1054 44.7211C32.7426 47.3674 27.4694 48.3263 22.4238 47.9044C17.3783 47.5592 12.4085 45.7183 8.539 42.3816C8.61487 42.1131 16.5816 28.6895 16.7333 28.5361C17.3403 32.9084 17.9094 37.319 18.4405 41.6912C19.2751 41.1159 28.1902 32.4098 32.0218 28.8813C30.8458 33.407 29.518 37.8559 28.2282 42.3432C30.4664 42.535 36.5363 42.4583 37.333 42.3432Z" fill="#FD5816"/>
</svg>
